<svg width="62" height="62" viewBox="0 0 62 62" xmlns="http://www.w3.org/2000/svg">
    <defs>
        <clipPath id="clip-_100_Data_Security_"><rect width="62" height="62" /></clipPath>
    </defs>
    <g id="_100_Data_Security_" data-name="100% Data Security " clipPath="url(#clip-_100_Data_Security_)">
        <g id="secure-data" transform="translate(3 3)">
            <g id="Group_78423" data-name="Group 78423">
                <g id="Group_78422" data-name="Group 78422">
                    <path id="Path_112999" data-name="Path 112999" d="M44.522,34.133h-.928a.928.928,0,0,0,0,1.856h.928a.928.928,0,0,0,0-1.856Z" transform="translate(-38.028 -30.422)" fill="var(--primary)" />
                    <path id="Path_113000" data-name="Path 113000" d="M87.189,34.133h-.928a.928.928,0,1,0,0,1.855h.928a.928.928,0,0,0,0-1.855Z" transform="translate(-76.056 -30.422)" fill="var(--primary)" />
                    <path id="Path_113001" data-name="Path 113001" d="M129.856,34.133h-.928a.928.928,0,0,0,0,1.855h.928a.928.928,0,0,0,0-1.855Z" transform="translate(-114.084 -30.422)" fill="var(--primary)" />
                    <path id="Path_113002" data-name="Path 113002" d="M196.645,34.133h-25.05a.928.928,0,0,0,0,1.855h25.05a.928.928,0,0,0,0-1.855Z" transform="translate(-152.111 -30.422)" fill="var(--primary)" />
                    <path
                            id="Path_113003"
                            data-name="Path 113003"
                            d="M53.811,33.4h-.928V28.761A10.157,10.157,0,0,0,50.1,21.779V4.639A4.644,4.644,0,0,0,45.461,0H4.639A4.644,4.644,0,0,0,0,4.639V41.75a4.645,4.645,0,0,0,4.639,4.639h25.05v2.783a6.5,6.5,0,0,0,6.494,6.494H49.172a6.5,6.5,0,0,0,6.494-6.494V35.255A1.856,1.856,0,0,0,53.811,33.4Zm-2.783-4.639V33.4h-16.7V28.761a8.35,8.35,0,1,1,16.7,0ZM1.856,4.639A2.783,2.783,0,0,1,4.639,1.856H45.461a2.783,2.783,0,0,1,2.783,2.783V7.422H1.856ZM29.689,35.255v9.278H4.639A2.783,2.783,0,0,1,1.856,41.75V9.278H48.244v10.94a10.193,10.193,0,0,0-15.772,8.543V33.4h-.928A1.856,1.856,0,0,0,29.689,35.255Zm24.122,1.855H51.028a.928.928,0,0,0,0,1.855h2.783v1.856H51.028a.928.928,0,0,0,0,1.855h2.783v1.856H51.028a.928.928,0,0,0,0,1.855h2.783v1.856H51.028a.928.928,0,0,0,0,1.855h2.691a4.647,4.647,0,0,1-4.546,3.711H36.183A4.647,4.647,0,0,1,31.637,50.1h2.691a.928.928,0,0,0,0-1.855H31.544V46.389h2.783a.928.928,0,0,0,0-1.855H31.544V42.678h2.783a.928.928,0,1,0,0-1.855H31.544V38.967h2.783a.928.928,0,1,0,0-1.855H31.544V35.255H53.811v1.855Z"
                            fill="var(--primary)"
                    />
                    <path
                            id="Path_113004"
                            data-name="Path 113004"
                            d="M368.8,372.329v2.026a.928.928,0,0,0,1.855,0v-2.026a2.781,2.781,0,1,0-1.855,0Zm.928-3.54a.928.928,0,1,1-.928.928A.928.928,0,0,1,369.725,368.789Z"
                            transform="translate(-327.047 -327.039)"
                            fill="var(--primary)"
                    />
                    <path
                            id="Path_113005"
                            data-name="Path 113005"
                            d="M61.406,125.034a.928.928,0,0,0-.928.928v2.783H53.056v-7.422h3.711a.928.928,0,1,0,0-1.855H53.056a1.856,1.856,0,0,0-1.856,1.856v7.422a1.856,1.856,0,0,0,1.856,1.856h7.422a1.856,1.856,0,0,0,1.856-1.856v-2.783A.928.928,0,0,0,61.406,125.034Z"
                            transform="translate(-45.633 -106.478)"
                            fill="var(--primary)"
                    />
                    <path
                            id="Path_113006"
                            data-name="Path 113006"
                            d="M78.477,123.453a.928.928,0,0,0-1.312,1.312l1.856,1.856a.928.928,0,0,0,.656.272h.042a.928.928,0,0,0,.671-.332l4.639-5.567A.928.928,0,1,0,83.6,119.8l-3.989,4.787Z"
                            transform="translate(-68.543 -106.482)"
                            fill="var(--primary)"
                    />
                    <path
                            id="Path_113007"
                            data-name="Path 113007"
                            d="M61.406,270.1a.928.928,0,0,0-.928.928v2.783H53.056v-7.422h3.711a.928.928,0,0,0,0-1.855H53.056A1.856,1.856,0,0,0,51.2,266.39v7.422a1.856,1.856,0,0,0,1.856,1.856h7.422a1.856,1.856,0,0,0,1.856-1.856v-2.783A.928.928,0,0,0,61.406,270.1Z"
                            transform="translate(-45.633 -235.773)"
                            fill="var(--primary)"
                    />
                    <path
                            id="Path_113008"
                            data-name="Path 113008"
                            d="M78.477,268.521a.928.928,0,0,0-1.312,1.312l1.856,1.856a.928.928,0,0,0,.656.272h.042a.928.928,0,0,0,.671-.332l4.639-5.567a.928.928,0,0,0-1.425-1.189l-3.989,4.787Z"
                            transform="translate(-68.543 -235.777)"
                            fill="var(--primary)"
                    />
                    <path id="Path_113009" data-name="Path 113009" d="M180.128,129.856h7.422a.928.928,0,0,0,0-1.856h-7.422a.928.928,0,0,0,0,1.856Z" transform="translate(-159.717 -114.083)" fill="var(--primary)" />
                    <path
                            id="Path_113010"
                            data-name="Path 113010"
                            d="M193.117,171.595a.928.928,0,0,0-.928-.928H180.128a.928.928,0,1,0,0,1.855h12.061A.928.928,0,0,0,193.117,171.595Z"
                            transform="translate(-159.717 -152.111)"
                            fill="var(--primary)"
                    />
                    <path id="Path_113011" data-name="Path 113011" d="M187.55,273.067h-7.422a.928.928,0,1,0,0,1.855h7.422a.928.928,0,0,0,0-1.855Z" transform="translate(-159.717 -243.378)" fill="var(--primary)" />

                    <path id="Path_113012" data-name="Path 113012" d="M186.623,315.733h-6.494a.928.928,0,0,0,0,1.855h6.494a.928.928,0,1,0,0-1.855Z" transform="translate(-159.718 -281.405)" fill="var(--primary)" />
                </g>
            </g>
        </g>
    </g>
</svg>
