<svg width="62" xmlns="http://www.w3.org/2000/svg" height="62" viewBox="0 0 62 62">

    <defs>

        <clipPath id="clip-Premium_Customer_Support">

            <rect width="62" height="62"/>

        </clipPath>

    </defs>

    <g
            id="Premium_Customer_Support"
            data-name="Premium Customer Support"
            clipPath="url(#clip-Premium_Customer_Support)"
    >

        <g
                id="customer-service"
                transform="translate(2 2)"
        >

            <g
                    id="Group_78408"
                    data-name="Group 78408"
                    transform="translate(0.001 9.516)"
            >

                <g id="Group_78407" data-name="Group 78407">

                    <path
                            id="Path_112984"
                            data-name="Path 112984"
                            d="M48.392,121.871l-2.2-6.61a6.661,6.661,0,0,0-5.128-4.447l-6.36-1.157v-.493a9.577,9.577,0,0,0,2.837-2.519h1.921a2.858,2.858,0,0,0,2.855-2.855V92.371a12.371,12.371,0,1,0-24.742,0v6.661a3.813,3.813,0,0,0,3.035,3.727,9.534,9.534,0,0,0,4.578,6.4v.493l-6.361,1.157a6.66,6.66,0,0,0-5.127,4.447l-.381,1.143-3.241-3.241a.953.953,0,0,1,0-1.347l3.759-3.758L6.779,101l-4.248,4.248a6.661,6.661,0,0,0,0,9.42l12.861,12.861a6.658,6.658,0,0,0,9.391.029l4.635-4.247-1.445-1.443ZM40.411,103.79a.953.953,0,0,1-.952.952h-.8a9.452,9.452,0,0,0,.62-1.982,3.77,3.77,0,0,0,1.131-.45Zm-.952-3.119V97.394a1.887,1.887,0,0,1,0,3.277Zm-19.032,0a1.887,1.887,0,0,1,0-3.277Zm0-6.4v1.087a3.774,3.774,0,0,0-.952.394V92.371a10.468,10.468,0,1,1,20.935,0v3.384a3.74,3.74,0,0,0-.952-.394V94.274h-.952a10.47,10.47,0,0,1-7.45-3.086l-1.114-1.114-1.114,1.114a10.47,10.47,0,0,1-7.45,3.086Zm1.9,6.661V96.141a12.338,12.338,0,0,0,7.613-3.382,12.332,12.332,0,0,0,7.613,3.382v4.794a7.556,7.556,0,0,1-1.03,3.806H29.943v1.9h5.019a7.6,7.6,0,0,1-12.632-5.71ZM32.8,110.013v.045l-2.855,2.855-2.855-2.855v-.045a9.508,9.508,0,0,0,5.71,0Zm-17.3,5.85a4.76,4.76,0,0,1,3.663-3.177l6.652-1.209,4.127,4.127,4.126-4.126,6.651,1.209a4.758,4.758,0,0,1,3.663,3.177l1.369,4.1H26.069l-3.707-3.707-4.119,3.726a.972.972,0,0,1-1.346,0l-2.078-2.078ZM6.778,103.694l4.364,4.364-1.033,1.033-4.364-4.364Zm16.687,22.494a4.759,4.759,0,0,1-6.729,0L3.874,113.326a4.759,4.759,0,0,1,0-6.729l.523-.523,4.364,4.364-.034.034a2.86,2.86,0,0,0,0,4.038l6.824,6.824a2.84,2.84,0,0,0,2.019.836,2.8,2.8,0,0,0,1.984-.8l.071-.064,4.384,4.384Zm1.951-1.789-4.375-4.375,1.257-1.136,4.367,4.367Z"
                            transform="translate(-0.58 -80)"
                            fill="var(--primary)"
                    />

                </g>

            </g>

            <g
                    id="Group_78410"
                    data-name="Group 78410"
                    transform="translate(39.832)"
            >

                <g id="Group_78409" data-name="Group 78409">

                    <path
                            id="Path_112985"
                            data-name="Path 112985"
                            d="M351.605,0H338.283a2.858,2.858,0,0,0-2.855,2.855v7.613a2.858,2.858,0,0,0,2.855,2.855h2.542l-.984,5.739,9.183-5.739h2.582a2.858,2.858,0,0,0,2.855-2.855V2.855A2.858,2.858,0,0,0,351.605,0Zm.952,10.468a.953.953,0,0,1-.952.952h-3.128L342.434,15.2l.648-3.777h-4.8a.953.953,0,0,1-.952-.952V2.855a.953.953,0,0,1,.952-.952h13.323a.953.953,0,0,1,.952.952Z"
                            transform="translate(-335.428)"
                            fill="var(--primary)"
                    />

                </g>

            </g>

            <g
                    id="Group_78412"
                    data-name="Group 78412"
                    transform="translate(43.638 3.806)"
            >

                <g id="Group_78411" data-name="Group 78411">

                    <rect
                            id="Rectangle_19386"
                            data-name="Rectangle 19386"
                            width="11.419"
                            height="1.903"
                            fill="var(--primary)"
                    />

                </g>

            </g>

            <g
                    id="Group_78414"
                    data-name="Group 78414"
                    transform="translate(43.638 7.613)"
            >

                <g id="Group_78413" data-name="Group 78413">

                    <rect
                            id="Rectangle_19387"
                            data-name="Rectangle 19387"
                            width="7.613"
                            height="1.903"
                            fill="var(--primary)"
                    />

                </g>

            </g>

            <g
                    id="Group_78416"
                    data-name="Group 78416"
                    transform="translate(53.154 7.613)"
            >

                <g id="Group_78415" data-name="Group 78415">

                    <rect
                            id="Rectangle_19388"
                            data-name="Rectangle 19388"
                            width="1.903"
                            height="1.903"
                            fill="var(--primary)"
                    />

                </g>

            </g>

            <g
                    id="Group_78418"
                    data-name="Group 78418"
                    transform="translate(0 2.855)"
            >

                <g id="Group_78417" data-name="Group 78417">

                    <path
                            id="Path_112986"
                            data-name="Path 112986"
                            d="M29.936,24A26.628,26.628,0,0,0,4.007,44.6L2.2,41.592l-1.632.979,3.345,5.574L9.491,44.8l-.979-1.632L5.932,44.715A24.748,24.748,0,0,1,37.267,27.007l.563-1.818A26.628,26.628,0,0,0,29.936,24Z"
                            transform="translate(-0.572 -24)"
                            fill="var(--primary)"
                    />

                </g>

            </g>

            <g
                    id="Group_78420"
                    data-name="Group 78420"
                    transform="translate(48.587 17.726)"
            >

                <g id="Group_78419" data-name="Group 78419">

                    <path
                            id="Path_112987"
                            data-name="Path 112987"
                            d="M418.85,152.361l-5.574-3.345-3.344,5.575,1.632.979,1.665-2.776a24.763,24.763,0,0,1-4.194,23.574l1.478,1.2a26.649,26.649,0,0,0,4.56-25.252l2.8,1.678Z"
                            transform="translate(-409.036 -149.016)"
                            fill="var(--primary)"
                    />

                </g>

            </g>

        </g>

    </g>

</svg>
