<svg xmlns="http://www.w3.org/2000/svg" version="1.1" xmlns:xlink="http://www.w3.org/1999/xlink" width="512" height="512" x="0" y="0" viewBox="0 0 32 32" style="enable-background:new 0 0 512 512" xml:space="preserve" class=""><g><g fill="#011839"><path d="M26.5 22c-1.2 0-2.28.48-3.09 1.24l-3.19-2.13a1.001 1.001 0 1 0-1.11 1.67l3.19 2.13c-.19.5-.31 1.03-.31 1.59 0 2.48 2.02 4.5 4.5 4.5s4.5-2.02 4.5-4.5-2.02-4.5-4.5-4.5zm0 7a2.5 2.5 0 0 1 0-5 2.5 2.5 0 0 1 0 5zM19.67 11.06c.19 0 .38-.05.55-.17l3.19-2.13c.81.76 1.89 1.24 3.09 1.24 2.48 0 4.5-2.02 4.5-4.5S28.98 1 26.5 1 22 3.02 22 5.5c0 .56.12 1.1.31 1.59l-3.19 2.13c-.46.31-.58.93-.28 1.39.19.29.51.45.83.45zM26.5 3a2.5 2.5 0 0 1 0 5 2.5 2.5 0 0 1 0-5z" fill="#024dbe" opacity="1" data-original="#011839" class=""></path></g><path fill="#4991ff" d="M10 7c-4.96 0-9 4.04-9 9s4.04 9 9 9 9-4.04 9-9-4.04-9-9-9zM6.85 17.44a.996.996 0 0 1-.71 1.7c-.26 0-.51-.1-.71-.29l-2.14-2.14a.996.996 0 0 1 0-1.41l2.14-2.14a.996.996 0 1 1 1.41 1.41L5.4 16.01l1.44 1.44zm4.98-4.62-1.71 6.86c-.11.46-.52.76-.97.76-.08 0-.16 0-.24-.03a1 1 0 0 1-.73-1.21l1.71-6.86a1 1 0 0 1 1.94.48zm2.74 6.04c-.2.2-.45.29-.71.29s-.51-.1-.71-.29a.996.996 0 0 1 0-1.41l1.44-1.44-1.44-1.44a.996.996 0 1 1 1.41-1.41l2.14 2.14c.39.39.39 1.02 0 1.41l-2.14 2.14z" opacity="1" data-original="#7738c8" class=""></path></g></svg>